# xmcd
#
# Track frame offsets:
#	150
#	4710
#	28829
#	47567
#	78186
#	97820
#	113393
#	128400
#	139432
#	159558
#	182132
#
# Disc length: 2624 seconds
#
# Revision: 1
# Processed by: cddbd v1.5.2PL0 Copyright (c) Steve Scherf et al.
# Submitted via: audiograbber 1.83.01
#
DISCID=7b0a3e0b
DTITLE=Prefuse 73 - Rivington Nao Rio
DYEAR=2015
DGENRE=
TTITLE0=Senora 95 [Intro]
TTITLE1=Applauded Assumptions
TTITLE2=Quiet One [Ft. Rob Crow]
TTITLE3=Through A Lit And Darkened Path [Pt. 1-2]
TTITLE4=Inside
TTITLE5=Infrared [Ft. Sam Dew]
TTITLE6=Jacinto Lyric Range
TTITLE7=140 Jabs Interlude [Ft. Milo and Busdriver]
TTITLE8=See More Than Just Stars [Ft. Helado Negro]
TTITLE9=Mojav Mating Call
TTITLE10=Open Nerve Farewells
EXTD=
EXTT0=
EXTT1=
EXTT2=
EXTT3=
EXTT4=
EXTT5=
EXTT6=
EXTT7=
EXTT8=
EXTT9=
EXTT10=
PLAYORDER=
